<svg id="visual" viewBox="0 0 900 600" width="900" height="600" xmlns="http://www.w3.org/2000/svg" xmlns:xlink="http://www.w3.org/1999/xlink" version="1.1"><rect x="0" y="0" width="900" height="600" fill="#001220"></rect><defs><linearGradient id="grad1_0" x1="33.3%" y1="0%" x2="100%" y2="100%"><stop offset="20%" stop-color="#001220" stop-opacity="1"></stop><stop offset="80%" stop-color="#001220" stop-opacity="1"></stop></linearGradient></defs><defs><linearGradient id="grad2_0" x1="0%" y1="0%" x2="66.7%" y2="100%"><stop offset="20%" stop-color="#001220" stop-opacity="1"></stop><stop offset="80%" stop-color="#001220" stop-opacity="1"></stop></linearGradient></defs><g transform="translate(900, 0)"><path d="M0 405.6C-41.6 398.5 -83.3 391.5 -123 378.5C-162.7 365.6 -200.4 346.8 -234.5 322.8C-268.6 298.8 -299.1 269.6 -325.2 236.3C-351.3 202.9 -373.1 165.4 -385.8 125.3C-398.4 85.3 -402 42.6 -405.6 0L0 0Z" fill="#009473"></path></g><g transform="translate(0, 600)"><path d="M0 -405.6C40.3 -393.1 80.7 -380.7 119.3 -367.1C157.9 -353.6 194.7 -339 231.6 -318.8C268.5 -298.5 305.4 -272.7 328.2 -238.4C350.9 -204.1 359.4 -161.4 370 -120.2C380.5 -79.1 393.1 -39.5 405.6 0L0 0Z" fill="#009473"></path></g></svg>