<svg id="visual" viewBox="0 0 900 600" width="900" height="600" xmlns="http://www.w3.org/2000/svg" xmlns:xlink="http://www.w3.org/1999/xlink" version="1.1"><rect x="0" y="0" width="900" height="600" fill="#001220"></rect><defs><linearGradient id="grad1_0" x1="33.3%" y1="0%" x2="100%" y2="100%"><stop offset="20%" stop-color="#001220" stop-opacity="1"></stop><stop offset="80%" stop-color="#001220" stop-opacity="1"></stop></linearGradient></defs><defs><linearGradient id="grad2_0" x1="0%" y1="0%" x2="66.7%" y2="100%"><stop offset="20%" stop-color="#001220" stop-opacity="1"></stop><stop offset="80%" stop-color="#001220" stop-opacity="1"></stop></linearGradient></defs><g transform="translate(900, 0)"><path d="M0 432.7C-43.5 424.5 -86.9 416.4 -130.7 402.3C-174.5 388.2 -218.5 368.2 -242.8 334.1C-267 300 -271.4 251.8 -301 218.7C-330.5 185.6 -385.3 167.6 -411.5 133.7C-437.6 99.8 -435.2 49.9 -432.7 0L0 0Z" fill="#FBAE3C"></path></g><g transform="translate(0, 600)"><path d="M0 -432.7C36.4 -402.1 72.8 -371.6 117.7 -362.4C162.7 -353.1 216.3 -365.2 252.2 -347.1C288 -329 306.2 -280.7 332.5 -241.6C358.9 -202.4 393.4 -172.4 411.5 -133.7C429.6 -95 431.1 -47.5 432.7 0L0 0Z" fill="#FBAE3C"></path></g></svg>