<svg id="visual" viewBox="0 0 900 600" width="900" height="600" xmlns="http://www.w3.org/2000/svg" xmlns:xlink="http://www.w3.org/1999/xlink" version="1.1"><rect x="0" y="0" width="900" height="600" fill="#001220"></rect><defs><linearGradient id="grad1_0" x1="33.3%" y1="0%" x2="100%" y2="100%"><stop offset="20%" stop-color="#001220" stop-opacity="1"></stop><stop offset="80%" stop-color="#001220" stop-opacity="1"></stop></linearGradient></defs><defs><linearGradient id="grad2_0" x1="0%" y1="0%" x2="66.7%" y2="100%"><stop offset="20%" stop-color="#001220" stop-opacity="1"></stop><stop offset="80%" stop-color="#001220" stop-opacity="1"></stop></linearGradient></defs><g transform="translate(900, 0)"><path d="M0 513.8C-60.6 450.6 -121.2 387.4 -203.5 352.5C-285.8 317.6 -389.6 310.9 -445 256.9C-500.3 202.9 -507 101.4 -513.8 0L0 0Z" fill="#0000fd"></path></g><g transform="translate(0, 600)"><path d="M0 -513.8C91.8 -501.5 183.7 -489.2 256.9 -445C330.1 -400.7 384.6 -324.5 424.4 -245C464.1 -165.5 488.9 -82.8 513.8 0L0 0Z" fill="#0000fd"></path></g></svg>