<svg id="visual" viewBox="0 0 900 600" width="900" height="600" xmlns="http://www.w3.org/2000/svg" xmlns:xlink="http://www.w3.org/1999/xlink" version="1.1"><rect x="0" y="0" width="900" height="600" fill="#001122"></rect><path d="M0 331L180 283L360 314L540 270L720 338L900 246L900 601L720 601L540 601L360 601L180 601L0 601Z" fill="#888277"></path><path d="M0 354L180 321L360 343L540 301L720 297L900 290L900 601L720 601L540 601L360 601L180 601L0 601Z" fill="#a2855a"></path><path d="M0 351L180 319L360 387L540 350L720 355L900 330L900 601L720 601L540 601L360 601L180 601L0 601Z" fill="#bf843d"></path><path d="M0 386L180 409L360 382L540 423L720 410L900 353L900 601L720 601L540 601L360 601L180 601L0 601Z" fill="#e17e21"></path><path d="M0 414L180 421L360 390L540 431L720 415L900 447L900 601L720 601L540 601L360 601L180 601L0 601Z" fill="#f7770f"></path><path d="M0 420L180 414L360 471L540 415L720 434L900 447L900 601L720 601L540 601L360 601L180 601L0 601Z" fill="#f7770f"></path><path d="M0 464L180 467L360 483L540 461L720 486L900 460L900 601L720 601L540 601L360 601L180 601L0 601Z" fill="#e17e21"></path><path d="M0 517L180 516L360 481L540 500L720 510L900 510L900 601L720 601L540 601L360 601L180 601L0 601Z" fill="#bf843d"></path><path d="M0 525L180 523L360 532L540 515L720 520L900 538L900 601L720 601L540 601L360 601L180 601L0 601Z" fill="#a2855a"></path><path d="M0 549L180 555L360 564L540 567L720 554L900 567L900 601L720 601L540 601L360 601L180 601L0 601Z" fill="#888277"></path></svg>