<svg id="visual" viewBox="0 0 900 600" width="900" height="600" xmlns="http://www.w3.org/2000/svg" xmlns:xlink="http://www.w3.org/1999/xlink" version="1.1"><rect x="0" y="0" width="900" height="600" fill="#009473"></rect><path d="M0 319L10 317C20 315 40 311 60 303.8C80 296.7 100 286.3 120 283.3C140 280.3 160 284.7 180 288.5C200 292.3 220 295.7 240 300.2C260 304.7 280 310.3 300 312.3C320 314.3 340 312.7 360 307.5C380 302.3 400 293.7 420 291.7C440 289.7 460 294.3 480 298.8C500 303.3 520 307.7 540 304.2C560 300.7 580 289.3 600 290C620 290.7 640 303.3 660 311.7C680 320 700 324 720 318.8C740 313.7 760 299.3 780 297.2C800 295 820 305 840 309.7C860 314.3 880 313.7 890 313.3L900 313L900 0L890 0C880 0 860 0 840 0C820 0 800 0 780 0C760 0 740 0 720 0C700 0 680 0 660 0C640 0 620 0 600 0C580 0 560 0 540 0C520 0 500 0 480 0C460 0 440 0 420 0C400 0 380 0 360 0C340 0 320 0 300 0C280 0 260 0 240 0C220 0 200 0 180 0C160 0 140 0 120 0C100 0 80 0 60 0C40 0 20 0 10 0L0 0Z" fill="#FFFFFF" stroke-linecap="round" stroke-linejoin="miter"></path></svg>